<svg width="181" height="80" viewBox="0 0 181 80" fill="none" xmlns="http://www.w3.org/2000/svg">
<path d="M55.2965 44.2057C55.2965 46.5809 53.3711 48.5063 50.9959 48.5063C48.6207 48.5063 46.6953 46.5809 46.6953 44.2057C46.6953 41.4169 49.6131 39.1402 50.688 35.7003C50.782 35.3994 51.2098 35.3994 51.3038 35.7003C52.3787 39.1402 55.2965 41.4169 55.2965 44.2057Z" fill="white"/>
<path d="M11.2021 10.8652H8.35188C7.56472 10.8652 6.92676 11.5053 6.92676 12.2951V27.5464C6.92676 28.3362 7.56472 28.9762 8.35188 28.9762H11.2021C11.9893 28.9762 12.6272 28.3362 12.6272 27.5464V12.2951C12.6272 11.5053 11.9893 10.8652 11.2021 10.8652Z" fill="white"/>
<path d="M43.5688 15.5198H40.2323C40.0136 13.5971 38.446 12.0668 36.4769 11.8529V9.05664H26.0756V11.8529C24.1065 12.0668 22.5389 13.5971 22.3202 15.5198H16.4307V25.6761H22.3202C22.5562 27.7507 24.3621 29.3694 26.5484 29.3694H36.0041C38.1904 29.3694 39.9963 27.7507 40.2323 25.6761H43.5688C44.8723 25.6761 45.9327 26.7116 45.9327 27.9844V31.216C45.9327 31.981 46.5677 32.6009 47.3511 32.6009H54.9157C55.6991 32.6009 56.3341 31.981 56.3341 31.216V27.9844C56.3341 21.1116 50.6074 15.5198 43.5688 15.5198Z" fill="white"/>
<path d="M23.2027 5.4333H40.0563C41.6991 5.4333 43.0305 4.21717 43.0305 2.71665C43.0305 1.21613 41.6991 0 40.0563 0H23.2027C21.5599 0 20.2285 1.21613 20.2285 2.71665C20.2285 4.21717 21.5599 5.4333 23.2027 5.4333Z" fill="white"/>
<path d="M21.6801 58.123H14.9736V60.5821C18.3269 60.883 20.5623 61.6998 21.6801 62.1469V58.123Z" fill="white"/>
<path d="M31.521 51.8623H25.0381V62.8179C27.592 64.0466 29.9494 64.8657 31.521 65.2752V51.8623Z" fill="white"/>
<path d="M41.5844 44.2607H34.8779V66.0448C36.707 66.8591 40.1618 67.0627 41.5844 67.0627V44.2607Z" fill="white"/>
<path d="M45.9728 50.6792C49.2925 52.2127 52.7262 51.7773 55.3394 49.0947C56.2046 48.2072 56.3678 47.3868 56.9557 46.4703C57.0965 46.2489 56.9333 46.0701 57.4564 46.1841C60.4118 61.2915 50.4683 76.4504 35.3676 79.4214C12.3243 83.9527 -6.48956 61.0769 2.1327 39.2563C2.96877 37.1416 4.9047 31.9329 7.82871 33.2205C5.2512 37.4635 3.27503 42.1602 2.91512 47.1923C1.24521 70.5666 28.4175 85.2918 46.507 69.5472C47.361 68.8028 50.1777 65.9637 50.5242 65.0695C50.6337 64.7856 50.484 64.656 50.1956 64.7409C48.7202 65.1768 47.75 66.6068 45.9728 66.6068V50.6792Z" fill="white"/>
<path d="M44.4872 68.7612C44.6012 69.2463 44.2167 69.2575 43.9776 69.4788C39.6072 73.5295 31.09 74.569 25.4365 73.6189C19.7829 72.6688 13.5862 68.6025 10.1972 63.8208C10.0563 63.624 9.43934 62.8841 9.61818 62.7276C11.3127 62.7276 12.9468 62.4079 14.657 62.4929C24.5691 62.9936 34.0811 71.8551 44.4895 68.7634L44.4872 68.7612Z" fill="white"/>
<ellipse cx="28.2345" cy="46.6954" rx="3.25792" ry="3.25792" fill="#FF5500"/>
<path d="M72.0566 47.32C71.0299 47.32 70.1432 47.1 69.3966 46.66C68.6499 46.2067 68.0766 45.5867 67.6766 44.8C67.2899 44 67.0899 43.0933 67.0766 42.08L69.6966 41.94C69.7232 42.98 69.9366 43.76 70.3366 44.28C70.7499 44.8 71.3232 45.06 72.0566 45.06C72.8032 45.06 73.3832 44.8 73.7966 44.28C74.2099 43.7467 74.4166 42.9667 74.4166 41.94V32.8H77.0166V41.94C77.0166 43.0333 76.8099 43.9867 76.3966 44.8C75.9832 45.6 75.4032 46.22 74.6566 46.66C73.9232 47.1 73.0566 47.32 72.0566 47.32ZM82.8203 47.24C81.7003 47.24 80.8003 46.9867 80.1203 46.48C79.4403 45.96 79.1003 45.24 79.1003 44.32C79.1003 43.4 79.387 42.68 79.9603 42.16C80.5336 41.64 81.407 41.2667 82.5803 41.04L86.1203 40.34C86.1203 39.58 85.947 39.0133 85.6003 38.64C85.2536 38.2533 84.7403 38.06 84.0603 38.06C83.447 38.06 82.9603 38.2067 82.6003 38.5C82.2536 38.78 82.0136 39.1867 81.8803 39.72L79.2803 39.6C79.4936 38.4667 80.0136 37.6 80.8403 37C81.667 36.3867 82.7403 36.08 84.0603 36.08C85.5803 36.08 86.727 36.4667 87.5003 37.24C88.287 38 88.6803 39.0933 88.6803 40.52V44.4C88.6803 44.68 88.727 44.8733 88.8203 44.98C88.927 45.0867 89.0803 45.14 89.2803 45.14H89.6203V47C89.5403 47.0267 89.407 47.0467 89.2203 47.06C89.047 47.0733 88.867 47.08 88.6803 47.08C88.2403 47.08 87.847 47.0133 87.5003 46.88C87.1536 46.7333 86.887 46.4867 86.7003 46.14C86.5136 45.78 86.4203 45.2933 86.4203 44.68L86.6403 44.84C86.5336 45.3067 86.3003 45.7267 85.9403 46.1C85.5936 46.46 85.1536 46.74 84.6203 46.94C84.087 47.14 83.487 47.24 82.8203 47.24ZM83.3403 45.38C83.9136 45.38 84.407 45.2667 84.8203 45.04C85.2336 44.8133 85.5536 44.5 85.7803 44.1C86.007 43.7 86.1203 43.2267 86.1203 42.68V42.08L83.3603 42.64C82.787 42.76 82.3736 42.94 82.1203 43.18C81.8803 43.4067 81.7603 43.7067 81.7603 44.08C81.7603 44.4933 81.8936 44.8133 82.1603 45.04C82.4403 45.2667 82.8336 45.38 83.3403 45.38ZM93.6866 47C92.9132 47 92.2932 46.8 91.8266 46.4C91.3599 46 91.1266 45.36 91.1266 44.48V32.8H93.6866V44.22C93.6866 44.4867 93.7532 44.6867 93.8866 44.82C94.0332 44.9533 94.2332 45.02 94.4866 45.02H95.2666V47H93.6866ZM102.624 47.32C101.451 47.32 100.437 47.1133 99.5841 46.7C98.7307 46.2867 98.0574 45.7133 97.5641 44.98C97.0841 44.2333 96.8041 43.3667 96.7241 42.38L99.3641 42.22C99.4441 42.8333 99.6174 43.3533 99.8841 43.78C100.164 44.2067 100.531 44.5333 100.984 44.76C101.451 44.9733 102.011 45.08 102.664 45.08C103.224 45.08 103.697 45.0133 104.084 44.88C104.484 44.7333 104.784 44.5267 104.984 44.26C105.197 43.98 105.304 43.64 105.304 43.24C105.304 42.88 105.217 42.56 105.044 42.28C104.871 41.9867 104.537 41.7267 104.044 41.5C103.551 41.26 102.817 41.0267 101.844 40.8C100.671 40.5333 99.7307 40.2333 99.0241 39.9C98.3174 39.5533 97.8041 39.1267 97.4841 38.62C97.1641 38.1 97.0041 37.4533 97.0041 36.68C97.0041 35.8533 97.2107 35.1267 97.6241 34.5C98.0374 33.86 98.6241 33.3667 99.3841 33.02C100.144 32.66 101.057 32.48 102.124 32.48C103.257 32.48 104.217 32.6867 105.004 33.1C105.791 33.5 106.411 34.0533 106.864 34.76C107.317 35.4667 107.597 36.28 107.704 37.2L105.084 37.32C105.017 36.8 104.857 36.3467 104.604 35.96C104.364 35.5733 104.031 35.2733 103.604 35.06C103.191 34.8333 102.684 34.72 102.084 34.72C101.337 34.72 100.744 34.8933 100.304 35.24C99.8774 35.5733 99.6641 36.02 99.6641 36.58C99.6641 36.9667 99.7507 37.2867 99.9241 37.54C100.111 37.7933 100.437 38.0133 100.904 38.2C101.371 38.3733 102.024 38.56 102.864 38.76C104.131 39.0267 105.137 39.3667 105.884 39.78C106.631 40.1933 107.164 40.6733 107.484 41.22C107.804 41.7667 107.964 42.3933 107.964 43.1C107.964 43.9667 107.744 44.72 107.304 45.36C106.864 45.9867 106.244 46.4733 105.444 46.82C104.644 47.1533 103.704 47.32 102.624 47.32ZM115.239 47.24C114.186 47.24 113.259 47.0133 112.459 46.56C111.673 46.0933 111.059 45.44 110.619 44.6C110.193 43.76 109.979 42.78 109.979 41.66C109.979 40.5267 110.193 39.5467 110.619 38.72C111.059 37.88 111.673 37.2333 112.459 36.78C113.259 36.3133 114.186 36.08 115.239 36.08C116.293 36.08 117.213 36.3133 117.999 36.78C118.786 37.2333 119.393 37.88 119.819 38.72C120.259 39.5467 120.479 40.5267 120.479 41.66C120.479 42.78 120.259 43.76 119.819 44.6C119.393 45.44 118.786 46.0933 117.999 46.56C117.213 47.0133 116.293 47.24 115.239 47.24ZM115.239 45.16C116.066 45.16 116.699 44.8533 117.139 44.24C117.593 43.6267 117.819 42.7667 117.819 41.66C117.819 40.5667 117.593 39.7133 117.139 39.1C116.699 38.4733 116.066 38.16 115.239 38.16C114.413 38.16 113.773 38.4733 113.319 39.1C112.866 39.7133 112.639 40.5667 112.639 41.66C112.639 42.7667 112.866 43.6267 113.319 44.24C113.773 44.8533 114.413 45.16 115.239 45.16ZM127.095 47.24C126.041 47.24 125.115 47.0133 124.315 46.56C123.528 46.0933 122.915 45.44 122.475 44.6C122.048 43.76 121.835 42.78 121.835 41.66C121.835 40.5267 122.048 39.5467 122.475 38.72C122.915 37.88 123.528 37.2333 124.315 36.78C125.115 36.3133 126.041 36.08 127.095 36.08C128.148 36.08 129.068 36.3133 129.855 36.78C130.641 37.2333 131.248 37.88 131.675 38.72C132.115 39.5467 132.335 40.5267 132.335 41.66C132.335 42.78 132.115 43.76 131.675 44.6C131.248 45.44 130.641 46.0933 129.855 46.56C129.068 47.0133 128.148 47.24 127.095 47.24ZM127.095 45.16C127.921 45.16 128.555 44.8533 128.995 44.24C129.448 43.6267 129.675 42.7667 129.675 41.66C129.675 40.5667 129.448 39.7133 128.995 39.1C128.555 38.4733 127.921 38.16 127.095 38.16C126.268 38.16 125.628 38.4733 125.175 39.1C124.721 39.7133 124.495 40.5667 124.495 41.66C124.495 42.7667 124.721 43.6267 125.175 44.24C125.628 44.8533 126.268 45.16 127.095 45.16ZM138.95 47.24C137.883 47.24 136.957 47.0133 136.17 46.56C135.383 46.0933 134.77 45.44 134.33 44.6C133.903 43.76 133.69 42.78 133.69 41.66C133.69 40.54 133.903 39.5667 134.33 38.74C134.77 37.9 135.383 37.2467 136.17 36.78C136.957 36.3133 137.883 36.08 138.95 36.08C139.857 36.08 140.663 36.24 141.37 36.56C142.077 36.88 142.65 37.34 143.09 37.94C143.543 38.5267 143.823 39.2467 143.93 40.1L141.29 40.24C141.183 39.56 140.917 39.0467 140.49 38.7C140.077 38.34 139.563 38.16 138.95 38.16C138.123 38.16 137.483 38.4733 137.03 39.1C136.577 39.7133 136.35 40.5667 136.35 41.66C136.35 42.7667 136.577 43.6267 137.03 44.24C137.483 44.8533 138.123 45.16 138.95 45.16C139.577 45.16 140.097 44.98 140.51 44.62C140.937 44.26 141.197 43.7 141.29 42.94L143.93 43.06C143.823 43.9133 143.55 44.6533 143.11 45.28C142.67 45.9067 142.097 46.3933 141.39 46.74C140.683 47.0733 139.87 47.24 138.95 47.24ZM145.716 47V32.8H148.276V38.76H147.956C148.063 38.1467 148.276 37.6467 148.596 37.26C148.916 36.86 149.31 36.5667 149.776 36.38C150.243 36.18 150.756 36.08 151.316 36.08C152.103 36.08 152.763 36.2533 153.296 36.6C153.843 36.9333 154.25 37.4067 154.516 38.02C154.796 38.6333 154.936 39.34 154.936 40.14V47H152.376V40.76C152.376 39.8933 152.23 39.2467 151.936 38.82C151.643 38.38 151.183 38.16 150.556 38.16C149.863 38.16 149.31 38.3867 148.896 38.84C148.483 39.2933 148.276 39.9533 148.276 40.82V47H145.716ZM160.594 47.24C159.474 47.24 158.574 46.9867 157.894 46.48C157.214 45.96 156.874 45.24 156.874 44.32C156.874 43.4 157.16 42.68 157.734 42.16C158.307 41.64 159.18 41.2667 160.354 41.04L163.894 40.34C163.894 39.58 163.72 39.0133 163.374 38.64C163.027 38.2533 162.514 38.06 161.834 38.06C161.22 38.06 160.734 38.2067 160.374 38.5C160.027 38.78 159.787 39.1867 159.654 39.72L157.054 39.6C157.267 38.4667 157.787 37.6 158.614 37C159.44 36.3867 160.514 36.08 161.834 36.08C163.354 36.08 164.5 36.4667 165.274 37.24C166.06 38 166.454 39.0933 166.454 40.52V44.4C166.454 44.68 166.5 44.8733 166.594 44.98C166.7 45.0867 166.854 45.14 167.054 45.14H167.394V47C167.314 47.0267 167.18 47.0467 166.994 47.06C166.82 47.0733 166.64 47.08 166.454 47.08C166.014 47.08 165.62 47.0133 165.274 46.88C164.927 46.7333 164.66 46.4867 164.474 46.14C164.287 45.78 164.194 45.2933 164.194 44.68L164.414 44.84C164.307 45.3067 164.074 45.7267 163.714 46.1C163.367 46.46 162.927 46.74 162.394 46.94C161.86 47.14 161.26 47.24 160.594 47.24ZM161.114 45.38C161.687 45.38 162.18 45.2667 162.594 45.04C163.007 44.8133 163.327 44.5 163.554 44.1C163.78 43.7 163.894 43.2267 163.894 42.68V42.08L161.134 42.64C160.56 42.76 160.147 42.94 159.894 43.18C159.654 43.4067 159.534 43.7067 159.534 44.08C159.534 44.4933 159.667 44.8133 159.934 45.04C160.214 45.2667 160.607 45.38 161.114 45.38ZM168.939 47V32.8H171.499V41.14L175.879 36.32H179.039L174.859 40.76L179.179 47H176.299L173.179 42.28L171.499 44.06V47H168.939Z" fill="white"/>
</svg>
