<svg width="28" height="29" viewBox="0 0 28 29" fill="none" xmlns="http://www.w3.org/2000/svg">
<path d="M25.5391 5.1543H13.7046L13.353 2.23266C13.1994 0.959832 12.1496 0 10.9111 0H2.46094C1.10398 0 0 1.1434 0 2.54883V21.2969C0 22.7023 1.10398 23.8457 2.46094 23.8457H9.37798L9.72513 26.7673C9.87848 28.0376 10.9283 29 12.1671 29H25.5391C26.896 29 28 27.8566 28 26.4512V7.70312C28 6.2977 26.896 5.1543 25.5391 5.1543ZM2.46094 22.1465C2.00862 22.1465 1.64062 21.7653 1.64062 21.2969V2.54883C1.64062 2.08035 2.00862 1.69922 2.46094 1.69922H10.9111C11.3239 1.69922 11.6739 2.01912 11.725 2.44314C11.8439 3.43072 13.9786 21.1668 14.0965 22.1465H2.46094ZM11.3052 26.1538L11.031 23.8457H13.2318L11.3052 26.1538ZM26.3594 26.4512C26.3594 26.9196 25.9914 27.3008 25.5391 27.3008H12.5165L15.6394 23.5595C15.7993 23.3728 15.8709 23.1248 15.8379 22.8785L13.9092 6.85352H25.5391C25.9914 6.85352 26.3594 7.23465 26.3594 7.70312V26.4512Z" fill="#FFF"/>
<path d="M18.2847 14.5665V19.6665H16.8847V14.5665H16.1147V13.4465H16.8547C16.6947 13.1565 16.5747 12.8265 16.5747 12.4265C16.5747 11.3465 17.4447 10.7065 18.8947 10.7065C21.1247 10.7065 22.8347 11.9065 23.8347 13.5165H22.4647C21.7247 12.5465 20.5547 11.8265 19.2247 11.8265C18.3947 11.8265 17.9747 12.1765 17.9747 12.7465C17.9747 13.0065 18.0647 13.2365 18.1947 13.4465H19.2047V14.5665H18.2847ZM22.5142 19.1565C22.8042 18.9665 22.9742 18.7465 22.9742 18.5065C22.9742 18.1965 22.7142 17.9665 22.1042 17.9665C21.3842 17.9665 20.9942 18.2565 20.9942 18.7365C20.9942 19.3365 21.6642 19.6965 23.1942 20.2065L22.6042 21.2965C20.5742 20.7165 19.6042 19.8965 19.6042 18.7565C19.6042 18.1965 19.8042 17.7765 20.1542 17.4765C19.7742 17.1465 19.5942 16.7865 19.5942 16.3965C19.5942 15.5865 20.2142 15.1465 21.3342 15.1465H22.5642V14.5665H19.0542V13.4465H24.8642V14.5665H23.9442V16.2165H21.5442C21.1442 16.2165 20.9642 16.3565 20.9642 16.6065C20.9642 16.7465 21.0342 16.8765 21.1742 16.9965C21.4742 16.9265 21.8142 16.8865 22.1742 16.8865C23.7142 16.8865 24.3542 17.6165 24.3542 18.4565C24.3542 18.9765 24.1442 19.4065 23.6542 19.8165L22.5142 19.1565Z" fill="#FFF"/>
<path d="M3.98708 14.8335V7.56077H8.88765V8.82852H5.52472V10.5615H8.63552V11.8292H5.52472V13.5657H8.90186V14.8335H3.98708Z" fill="#FFF"/>
</svg>
