<svg width="28" height="29" viewBox="0 0 28 29" fill="none" xmlns="http://www.w3.org/2000/svg">
<path d="M25.5391 5.1543H13.7046L13.353 2.23266C13.1994 0.959832 12.1496 0 10.9111 0H2.46094C1.10398 0 0 1.1434 0 2.54883V21.2969C0 22.7023 1.10398 23.8457 2.46094 23.8457H9.37798L9.72513 26.7673C9.87848 28.0376 10.9283 29 12.1671 29H25.5391C26.896 29 28 27.8566 28 26.4512V7.70312C28 6.2977 26.896 5.1543 25.5391 5.1543ZM2.46094 22.1465C2.00862 22.1465 1.64062 21.7654 1.64062 21.2969V2.54883C1.64062 2.08035 2.00862 1.69922 2.46094 1.69922H10.9111C11.3239 1.69922 11.6739 2.01912 11.725 2.44314C11.8439 3.43072 13.9786 21.1668 14.0965 22.1465H2.46094ZM11.3052 26.1538L11.031 23.8457H13.2318L11.3052 26.1538ZM26.3594 26.4512C26.3594 26.9196 25.9914 27.3008 25.5391 27.3008H12.5165L15.6394 23.5595C15.7993 23.3728 15.8709 23.1248 15.8379 22.8785L13.9092 6.85352H25.5391C25.9914 6.85352 26.3594 7.23465 26.3594 7.70312V26.4512Z" fill="#3291D1"/>
</svg>
