<svg width="196" height="100" viewBox="0 0 196 100" fill="none" xmlns="http://www.w3.org/2000/svg">
<path d="M69.1206 55.2565C69.1206 58.2255 66.7139 60.6323 63.7449 60.6323C60.7759 60.6323 58.3691 58.2255 58.3691 55.2565C58.3691 51.7706 62.0164 48.9247 63.36 44.6248C63.4775 44.2487 64.0122 44.2487 64.1298 44.6248C65.4734 48.9247 69.1206 51.7706 69.1206 55.2565Z" fill="#3291D1"/>
<path d="M14.0034 13.5824H10.4406C9.45664 13.5824 8.65918 14.3824 8.65918 15.3696V34.4338C8.65918 35.421 9.45664 36.221 10.4406 36.221H14.0034C14.9873 36.221 15.7848 35.421 15.7848 34.4338V15.3696C15.7848 14.3824 14.9873 13.5824 14.0034 13.5824Z" fill="#3291D1"/>
<path d="M54.4617 19.3989H50.2911C50.0178 16.9955 48.0583 15.0826 45.5969 14.8153V11.32H32.5952V14.8153C30.1338 15.0826 28.1743 16.9955 27.901 19.3989H20.5391V32.0943H27.901C28.196 34.6875 30.4533 36.7108 33.1862 36.7108H45.0059C47.7388 36.7108 49.9961 34.6875 50.2911 32.0943H54.4617C56.0911 32.0943 57.4166 33.3886 57.4166 34.9796V39.0191C57.4166 39.9753 58.2103 40.7503 59.1896 40.7503H68.6454C69.6247 40.7503 70.4183 39.9753 70.4183 39.0191V34.9796C70.4183 26.3886 63.26 19.3989 54.4617 19.3989Z" fill="#3291D1"/>
<path d="M29.0038 6.7916H50.0709C52.1243 6.7916 53.7886 5.27145 53.7886 3.3958C53.7886 1.52015 52.1243 0 50.0709 0H29.0038C26.9504 0 25.2861 1.52015 25.2861 3.3958C25.2861 5.27145 26.9504 6.7916 29.0038 6.7916Z" fill="#3291D1"/>
<path d="M27.1008 72.6531H18.7178V75.7269C22.9093 76.103 25.7037 77.124 27.1008 77.6829V72.6531Z" fill="#3291D1"/>
<path d="M39.4005 64.8275H31.2969V78.522C34.4892 80.0578 37.436 81.0817 39.4005 81.5936V64.8275Z" fill="#3291D1"/>
<path d="M51.9797 55.3256H43.5967V82.5555C45.883 83.5735 50.2015 83.828 51.9797 83.828V55.3256Z" fill="#3291D1"/>
<path d="M57.466 63.3485C61.6156 65.2654 65.9077 64.7212 69.1743 61.368C70.2557 60.2586 70.4597 59.2331 71.1946 58.0874C71.3707 57.8107 71.1667 57.5872 71.8205 57.7297C75.5147 76.6139 63.0854 95.5624 44.2095 99.2761C15.4053 104.94 -8.11195 76.3457 2.66587 49.07C3.71096 46.4266 6.13087 39.9157 9.78589 41.5253C6.564 46.829 4.09379 52.6999 3.64389 58.99C1.55651 88.2077 35.5219 106.614 58.1338 86.9335C59.2012 86.003 62.7221 82.4541 63.1553 81.3364C63.2922 80.9815 63.105 80.8194 62.7445 80.9256C60.9002 81.4705 59.6875 83.258 57.466 83.258V63.3485Z" fill="#3291D1"/>
<path d="M55.609 85.9507C55.7516 86.5571 55.2709 86.5711 54.9719 86.8477C49.509 91.9111 38.8625 93.2104 31.7956 92.0228C24.7286 90.8352 16.9827 85.7523 12.7465 79.7752C12.5704 79.5293 11.7992 78.6044 12.0227 78.4088C14.1408 78.4088 16.1835 78.0092 18.3212 78.1154C30.7114 78.7413 42.6013 89.8181 55.6118 85.9535L55.609 85.9507Z" fill="#3291D1"/>
<ellipse cx="35.2931" cy="58.3693" rx="4.07239" ry="4.07239" fill="#FF5500"/>
<path d="M86.5507 57.3201C85.524 57.3201 84.6374 57.1001 83.8907 56.6601C83.144 56.2067 82.5707 55.5867 82.1707 54.8001C81.784 54.0001 81.584 53.0934 81.5707 52.0801L84.1907 51.9401C84.2174 52.9801 84.4307 53.7601 84.8307 54.2801C85.244 54.8001 85.8174 55.0601 86.5507 55.0601C87.2974 55.0601 87.8774 54.8001 88.2907 54.2801C88.704 53.7467 88.9107 52.9667 88.9107 51.9401V42.8001H91.5107V51.9401C91.5107 53.0334 91.304 53.9867 90.8907 54.8001C90.4774 55.6001 89.8974 56.2201 89.1507 56.6601C88.4174 57.1001 87.5507 57.3201 86.5507 57.3201ZM97.3145 57.2401C96.1945 57.2401 95.2945 56.9867 94.6145 56.4801C93.9345 55.9601 93.5945 55.2401 93.5945 54.3201C93.5945 53.4001 93.8811 52.6801 94.4545 52.1601C95.0278 51.6401 95.9011 51.2667 97.0745 51.0401L100.614 50.3401C100.614 49.5801 100.441 49.0134 100.094 48.6401C99.7478 48.2534 99.2345 48.0601 98.5545 48.0601C97.9411 48.0601 97.4545 48.2067 97.0945 48.5001C96.7478 48.7801 96.5078 49.1867 96.3745 49.7201L93.7745 49.6001C93.9878 48.4667 94.5078 47.6001 95.3345 47.0001C96.1611 46.3867 97.2345 46.0801 98.5545 46.0801C100.074 46.0801 101.221 46.4667 101.994 47.2401C102.781 48.0001 103.174 49.0934 103.174 50.5201V54.4001C103.174 54.6801 103.221 54.8734 103.314 54.9801C103.421 55.0867 103.574 55.1401 103.774 55.1401H104.114V57.0001C104.034 57.0267 103.901 57.0467 103.714 57.0601C103.541 57.0734 103.361 57.0801 103.174 57.0801C102.734 57.0801 102.341 57.0134 101.994 56.8801C101.648 56.7334 101.381 56.4867 101.194 56.1401C101.008 55.7801 100.914 55.2934 100.914 54.6801L101.134 54.8401C101.028 55.3067 100.794 55.7267 100.434 56.1001C100.088 56.4601 99.6478 56.7401 99.1145 56.9401C98.5811 57.1401 97.9811 57.2401 97.3145 57.2401ZM97.8345 55.3801C98.4078 55.3801 98.9011 55.2667 99.3145 55.0401C99.7278 54.8134 100.048 54.5001 100.274 54.1001C100.501 53.7001 100.614 53.2267 100.614 52.6801V52.0801L97.8545 52.6401C97.2811 52.7601 96.8678 52.9401 96.6145 53.1801C96.3745 53.4067 96.2545 53.7067 96.2545 54.0801C96.2545 54.4934 96.3878 54.8134 96.6545 55.0401C96.9345 55.2667 97.3278 55.3801 97.8345 55.3801ZM108.181 57.0001C107.407 57.0001 106.787 56.8001 106.321 56.4001C105.854 56.0001 105.621 55.3601 105.621 54.4801V42.8001H108.181V54.2201C108.181 54.4867 108.247 54.6867 108.381 54.8201C108.527 54.9534 108.727 55.0201 108.981 55.0201H109.761V57.0001H108.181ZM117.118 57.3201C115.945 57.3201 114.932 57.1134 114.078 56.7001C113.225 56.2867 112.552 55.7134 112.058 54.9801C111.578 54.2334 111.298 53.3667 111.218 52.3801L113.858 52.2201C113.938 52.8334 114.112 53.3534 114.378 53.7801C114.658 54.2067 115.025 54.5334 115.478 54.7601C115.945 54.9734 116.505 55.0801 117.158 55.0801C117.718 55.0801 118.192 55.0134 118.578 54.8801C118.978 54.7334 119.278 54.5267 119.478 54.2601C119.692 53.9801 119.798 53.6401 119.798 53.2401C119.798 52.8801 119.712 52.5601 119.538 52.2801C119.365 51.9867 119.032 51.7267 118.538 51.5001C118.045 51.2601 117.312 51.0267 116.338 50.8001C115.165 50.5334 114.225 50.2334 113.518 49.9001C112.812 49.5534 112.298 49.1267 111.978 48.6201C111.658 48.1001 111.498 47.4534 111.498 46.6801C111.498 45.8534 111.705 45.1267 112.118 44.5001C112.532 43.8601 113.118 43.3667 113.878 43.0201C114.638 42.6601 115.552 42.4801 116.618 42.4801C117.752 42.4801 118.712 42.6867 119.498 43.1001C120.285 43.5001 120.905 44.0534 121.358 44.7601C121.812 45.4667 122.092 46.2801 122.198 47.2001L119.578 47.3201C119.512 46.8001 119.352 46.3467 119.098 45.9601C118.858 45.5734 118.525 45.2734 118.098 45.0601C117.685 44.8334 117.178 44.7201 116.578 44.7201C115.832 44.7201 115.238 44.8934 114.798 45.2401C114.372 45.5734 114.158 46.0201 114.158 46.5801C114.158 46.9667 114.245 47.2867 114.418 47.5401C114.605 47.7934 114.932 48.0134 115.398 48.2001C115.865 48.3734 116.518 48.5601 117.358 48.7601C118.625 49.0267 119.632 49.3667 120.378 49.7801C121.125 50.1934 121.658 50.6734 121.978 51.2201C122.298 51.7667 122.458 52.3934 122.458 53.1001C122.458 53.9667 122.238 54.7201 121.798 55.3601C121.358 55.9867 120.738 56.4734 119.938 56.8201C119.138 57.1534 118.198 57.3201 117.118 57.3201ZM129.733 57.2401C128.68 57.2401 127.753 57.0134 126.953 56.5601C126.167 56.0934 125.553 55.4401 125.113 54.6001C124.687 53.7601 124.473 52.7801 124.473 51.6601C124.473 50.5267 124.687 49.5467 125.113 48.7201C125.553 47.8801 126.167 47.2334 126.953 46.7801C127.753 46.3134 128.68 46.0801 129.733 46.0801C130.787 46.0801 131.707 46.3134 132.493 46.7801C133.28 47.2334 133.887 47.8801 134.313 48.7201C134.753 49.5467 134.973 50.5267 134.973 51.6601C134.973 52.7801 134.753 53.7601 134.313 54.6001C133.887 55.4401 133.28 56.0934 132.493 56.5601C131.707 57.0134 130.787 57.2401 129.733 57.2401ZM129.733 55.1601C130.56 55.1601 131.193 54.8534 131.633 54.2401C132.087 53.6267 132.313 52.7667 132.313 51.6601C132.313 50.5667 132.087 49.7134 131.633 49.1001C131.193 48.4734 130.56 48.1601 129.733 48.1601C128.907 48.1601 128.267 48.4734 127.813 49.1001C127.36 49.7134 127.133 50.5667 127.133 51.6601C127.133 52.7667 127.36 53.6267 127.813 54.2401C128.267 54.8534 128.907 55.1601 129.733 55.1601ZM141.589 57.2401C140.535 57.2401 139.609 57.0134 138.809 56.5601C138.022 56.0934 137.409 55.4401 136.969 54.6001C136.542 53.7601 136.329 52.7801 136.329 51.6601C136.329 50.5267 136.542 49.5467 136.969 48.7201C137.409 47.8801 138.022 47.2334 138.809 46.7801C139.609 46.3134 140.535 46.0801 141.589 46.0801C142.642 46.0801 143.562 46.3134 144.349 46.7801C145.135 47.2334 145.742 47.8801 146.169 48.7201C146.609 49.5467 146.829 50.5267 146.829 51.6601C146.829 52.7801 146.609 53.7601 146.169 54.6001C145.742 55.4401 145.135 56.0934 144.349 56.5601C143.562 57.0134 142.642 57.2401 141.589 57.2401ZM141.589 55.1601C142.415 55.1601 143.049 54.8534 143.489 54.2401C143.942 53.6267 144.169 52.7667 144.169 51.6601C144.169 50.5667 143.942 49.7134 143.489 49.1001C143.049 48.4734 142.415 48.1601 141.589 48.1601C140.762 48.1601 140.122 48.4734 139.669 49.1001C139.215 49.7134 138.989 50.5667 138.989 51.6601C138.989 52.7667 139.215 53.6267 139.669 54.2401C140.122 54.8534 140.762 55.1601 141.589 55.1601ZM153.444 57.2401C152.378 57.2401 151.451 57.0134 150.664 56.5601C149.878 56.0934 149.264 55.4401 148.824 54.6001C148.398 53.7601 148.184 52.7801 148.184 51.6601C148.184 50.5401 148.398 49.5667 148.824 48.7401C149.264 47.9001 149.878 47.2467 150.664 46.7801C151.451 46.3134 152.378 46.0801 153.444 46.0801C154.351 46.0801 155.158 46.2401 155.864 46.5601C156.571 46.8801 157.144 47.3401 157.584 47.9401C158.038 48.5267 158.318 49.2467 158.424 50.1001L155.784 50.2401C155.678 49.5601 155.411 49.0467 154.984 48.7001C154.571 48.3401 154.058 48.1601 153.444 48.1601C152.618 48.1601 151.978 48.4734 151.524 49.1001C151.071 49.7134 150.844 50.5667 150.844 51.6601C150.844 52.7667 151.071 53.6267 151.524 54.2401C151.978 54.8534 152.618 55.1601 153.444 55.1601C154.071 55.1601 154.591 54.9801 155.004 54.6201C155.431 54.2601 155.691 53.7001 155.784 52.9401L158.424 53.0601C158.318 53.9134 158.044 54.6534 157.604 55.2801C157.164 55.9067 156.591 56.3934 155.884 56.7401C155.178 57.0734 154.364 57.2401 153.444 57.2401ZM160.211 57.0001V42.8001H162.771V48.7601H162.451C162.557 48.1467 162.771 47.6467 163.091 47.2601C163.411 46.8601 163.804 46.5667 164.271 46.3801C164.737 46.1801 165.251 46.0801 165.811 46.0801C166.597 46.0801 167.257 46.2534 167.791 46.6001C168.337 46.9334 168.744 47.4067 169.011 48.0201C169.291 48.6334 169.431 49.3401 169.431 50.1401V57.0001H166.871V50.7601C166.871 49.8934 166.724 49.2467 166.431 48.8201C166.137 48.3801 165.677 48.1601 165.051 48.1601C164.357 48.1601 163.804 48.3867 163.391 48.8401C162.977 49.2934 162.771 49.9534 162.771 50.8201V57.0001H160.211ZM175.088 57.2401C173.968 57.2401 173.068 56.9867 172.388 56.4801C171.708 55.9601 171.368 55.2401 171.368 54.3201C171.368 53.4001 171.655 52.6801 172.228 52.1601C172.801 51.6401 173.675 51.2667 174.848 51.0401L178.388 50.3401C178.388 49.5801 178.215 49.0134 177.868 48.6401C177.521 48.2534 177.008 48.0601 176.328 48.0601C175.715 48.0601 175.228 48.2067 174.868 48.5001C174.521 48.7801 174.281 49.1867 174.148 49.7201L171.548 49.6001C171.761 48.4667 172.281 47.6001 173.108 47.0001C173.935 46.3867 175.008 46.0801 176.328 46.0801C177.848 46.0801 178.995 46.4667 179.768 47.2401C180.555 48.0001 180.948 49.0934 180.948 50.5201V54.4001C180.948 54.6801 180.995 54.8734 181.088 54.9801C181.195 55.0867 181.348 55.1401 181.548 55.1401H181.888V57.0001C181.808 57.0267 181.675 57.0467 181.488 57.0601C181.315 57.0734 181.135 57.0801 180.948 57.0801C180.508 57.0801 180.115 57.0134 179.768 56.8801C179.421 56.7334 179.155 56.4867 178.968 56.1401C178.781 55.7801 178.688 55.2934 178.688 54.6801L178.908 54.8401C178.801 55.3067 178.568 55.7267 178.208 56.1001C177.861 56.4601 177.421 56.7401 176.888 56.9401C176.355 57.1401 175.755 57.2401 175.088 57.2401ZM175.608 55.3801C176.181 55.3801 176.675 55.2667 177.088 55.0401C177.501 54.8134 177.821 54.5001 178.048 54.1001C178.275 53.7001 178.388 53.2267 178.388 52.6801V52.0801L175.628 52.6401C175.055 52.7601 174.641 52.9401 174.388 53.1801C174.148 53.4067 174.028 53.7067 174.028 54.0801C174.028 54.4934 174.161 54.8134 174.428 55.0401C174.708 55.2667 175.101 55.3801 175.608 55.3801ZM183.433 57.0001V42.8001H185.993V51.1401L190.373 46.3201H193.533L189.353 50.7601L193.673 57.0001H190.793L187.673 52.2801L185.993 54.0601V57.0001H183.433Z" fill="#3291D1"/>
</svg>
