<svg width="24" height="24" viewBox="0 0 24 24" fill="none" xmlns="http://www.w3.org/2000/svg">
<g clip-path="url(#clip0_3050_4315)">
<path d="M21.4879 17.8445C21.0724 17.5355 20.4852 17.6218 20.1761 18.0371C20.0061 18.2656 19.8243 18.4897 19.6355 18.7032C19.2926 19.0911 19.329 19.6836 19.7169 20.0266C19.8953 20.1843 20.1168 20.2617 20.3375 20.2617C20.5968 20.2617 20.855 20.1547 21.0403 19.9451C21.2638 19.6923 21.4792 19.4268 21.6805 19.1562C21.9895 18.7409 21.9033 18.1535 21.4879 17.8445Z" fill="#2E90FA"/>
<path d="M23.0557 13.4474C22.5501 13.3373 22.0503 13.6582 21.9402 14.164C21.8796 14.4423 21.8064 14.7212 21.7225 14.9928C21.5696 15.4876 21.8467 16.0125 22.3414 16.1653C22.4336 16.1938 22.5268 16.2073 22.6185 16.2073C23.0188 16.2073 23.3895 15.9489 23.5139 15.5463C23.6135 15.2239 23.7004 14.893 23.7723 14.5629C23.8825 14.057 23.5616 13.5576 23.0557 13.4474Z" fill="#2E90FA"/>
<path d="M16.9753 20.8466C16.7264 20.9856 16.4687 21.1154 16.2093 21.2326C15.7375 21.4456 15.5277 22.0009 15.7408 22.4728C15.8973 22.8195 16.2386 23.0247 16.5957 23.0247C16.7247 23.0247 16.8558 22.9979 16.9811 22.9414C17.2887 22.8024 17.5942 22.6485 17.8893 22.4837C18.3415 22.2313 18.5033 21.6602 18.2508 21.2081C17.9985 20.7561 17.4274 20.5943 16.9753 20.8466Z" fill="#2E90FA"/>
<path d="M11.0624 4.5V11.6117L7.62467 15.0494C7.25857 15.4155 7.25857 16.0091 7.62467 16.3752C7.80776 16.5583 8.04762 16.6498 8.28762 16.6498C8.52753 16.6498 8.76748 16.5583 8.95057 16.3752L12.6629 12.6629C12.8387 12.4871 12.9374 12.2486 12.9374 12V4.5C12.9374 3.98222 12.5177 3.5625 11.9999 3.5625C11.4822 3.5625 11.0624 3.98222 11.0624 4.5Z" fill="#2E90FA"/>
<path d="M23.0625 2.01562C22.5447 2.01562 22.125 2.43534 22.125 2.95312V5.55638C19.9429 2.13412 16.1321 0 12 0C8.79469 0 5.78123 1.24823 3.51469 3.51469C1.24823 5.78123 0 8.79469 0 12C0 15.2053 1.24823 18.2188 3.51469 20.4853C5.78123 22.7518 8.79469 24 12 24C12.0079 24 12.0156 23.999 12.0234 23.9988C12.0313 23.999 12.039 24 12.0469 24C12.3848 24 12.726 23.9858 13.0611 23.9577C13.5771 23.9145 13.9603 23.4612 13.9171 22.9453C13.8739 22.4293 13.4212 22.0459 12.9046 22.0893C12.6213 22.113 12.3328 22.125 12.0469 22.125C12.039 22.125 12.0313 22.126 12.0234 22.1262C12.0156 22.126 12.0079 22.125 12 22.125C6.41705 22.125 1.875 17.583 1.875 12C1.875 6.41705 6.41705 1.875 12 1.875C15.598 1.875 18.9074 3.7928 20.7157 6.84375H18.138C17.6202 6.84375 17.2005 7.26347 17.2005 7.78125C17.2005 8.29903 17.6202 8.71875 18.138 8.71875H21C21.5709 8.71875 22.1051 8.5583 22.5599 8.28033C22.5891 8.26364 22.6172 8.24569 22.644 8.22633C23.46 7.68956 24 6.76627 24 5.71875V2.95312C24 2.43534 23.5803 2.01562 23.0625 2.01562Z" fill="#2E90FA"/>
</g>
<defs>
<clipPath id="clip0_3050_4315">
<rect width="24" height="24" fill="white"/>
</clipPath>
</defs>
</svg>
