<svg width="73" height="100" viewBox="0 0 73 100" fill="none" xmlns="http://www.w3.org/2000/svg">
<path d="M69.1206 55.2565C69.1206 58.2255 66.7139 60.6323 63.7449 60.6323C60.7759 60.6323 58.3691 58.2255 58.3691 55.2565C58.3691 51.7706 62.0164 48.9247 63.36 44.6248C63.4775 44.2487 64.0122 44.2487 64.1298 44.6248C65.4734 48.9247 69.1206 51.7706 69.1206 55.2565Z" fill="#3291D1"/>
<path d="M14.0034 13.5824H10.4406C9.45664 13.5824 8.65918 14.3824 8.65918 15.3696V34.4338C8.65918 35.421 9.45664 36.221 10.4406 36.221H14.0034C14.9873 36.221 15.7848 35.421 15.7848 34.4338V15.3696C15.7848 14.3824 14.9873 13.5824 14.0034 13.5824Z" fill="#3291D1"/>
<path d="M54.4617 19.3989H50.2911C50.0178 16.9955 48.0583 15.0826 45.5969 14.8153V11.32H32.5952V14.8153C30.1338 15.0826 28.1743 16.9955 27.901 19.3989H20.5391V32.0943H27.901C28.196 34.6875 30.4533 36.7108 33.1862 36.7108H45.0059C47.7388 36.7108 49.9961 34.6875 50.2911 32.0943H54.4617C56.0911 32.0943 57.4166 33.3886 57.4166 34.9796V39.0191C57.4166 39.9753 58.2103 40.7503 59.1896 40.7503H68.6454C69.6247 40.7503 70.4183 39.9753 70.4183 39.0191V34.9796C70.4183 26.3886 63.26 19.3989 54.4617 19.3989Z" fill="#3291D1"/>
<path d="M29.0038 6.7916H50.0709C52.1243 6.7916 53.7886 5.27145 53.7886 3.3958C53.7886 1.52015 52.1243 0 50.0709 0H29.0038C26.9504 0 25.2861 1.52015 25.2861 3.3958C25.2861 5.27145 26.9504 6.7916 29.0038 6.7916Z" fill="#3291D1"/>
<path d="M27.1008 72.6531H18.7178V75.7269C22.9093 76.103 25.7037 77.124 27.1008 77.6829V72.6531Z" fill="#3291D1"/>
<path d="M39.4005 64.8275H31.2969V78.522C34.4892 80.0578 37.436 81.0817 39.4005 81.5936V64.8275Z" fill="#3291D1"/>
<path d="M51.9797 55.3256H43.5967V82.5555C45.883 83.5735 50.2015 83.828 51.9797 83.828V55.3256Z" fill="#3291D1"/>
<path d="M57.466 63.3485C61.6156 65.2654 65.9077 64.7212 69.1743 61.368C70.2557 60.2586 70.4597 59.2331 71.1946 58.0874C71.3707 57.8107 71.1667 57.5872 71.8205 57.7297C75.5147 76.6139 63.0854 95.5624 44.2095 99.2761C15.4053 104.94 -8.11195 76.3457 2.66587 49.07C3.71096 46.4266 6.13087 39.9157 9.78589 41.5253C6.564 46.829 4.09379 52.6999 3.64389 58.99C1.55651 88.2077 35.5219 106.614 58.1338 86.9335C59.2012 86.003 62.7221 82.4541 63.1553 81.3364C63.2922 80.9815 63.105 80.8194 62.7445 80.9256C60.9002 81.4705 59.6875 83.258 57.466 83.258V63.3485Z" fill="#3291D1"/>
<path d="M55.609 85.9507C55.7516 86.5571 55.2709 86.5711 54.9719 86.8477C49.509 91.9111 38.8625 93.2104 31.7956 92.0228C24.7286 90.8352 16.9827 85.7523 12.7465 79.7752C12.5704 79.5293 11.7992 78.6044 12.0227 78.4088C14.1408 78.4088 16.1835 78.0092 18.3212 78.1154C30.7114 78.7413 42.6013 89.8181 55.6118 85.9535L55.609 85.9507Z" fill="#3291D1"/>
<ellipse cx="35.2931" cy="58.3693" rx="4.07239" ry="4.07239" fill="#FF5500"/>
</svg>
